Coordinates
version=1
nRows=5
nColumns=63
inDegrees=yes

Units are S.I. units (second, meters, Newtons, ...)
If the header above contains a line with 'inDegrees', this indicates whether rotational values are in degrees (yes) or radians (no).

endheader
time	pelvis_tilt	pelvis_list	pelvis_rotation	pelvis_tx	pelvis_ty	pelvis_tz	hip_flexion_r	hip_adduction_r	hip_rotation_r	knee_angle_r	knee_angle_r_beta	ankle_angle_r	subtalar_angle_r	mtp_angle_r	hip_flexion_l	hip_adduction_l	hip_rotation_l	knee_angle_l	knee_angle_l_beta	ankle_angle_l	subtalar_angle_l	mtp_angle_l	L5_S1_Flex_Ext	L5_S1_Lat_Bending	L5_S1_axial_rotation	L4_L5_Flex_Ext	L4_L5_Lat_Bending	L4_L5_axial_rotation	L3_L4_Flex_Ext	L3_L4_Lat_Bending	L3_L4_axial_rotation	L2_L3_Flex_Ext	L2_L3_Lat_Bending	L2_L3_axial_rotation	L1_L2_Flex_Ext	L1_L2_Lat_Bending	L1_L2_axial_rotation	L1_T12_Flex_Ext	L1_T12_Lat_Bending	L1_T12_axial_rotation	Abs_r3	Abs_r2	Abs_r1	Abs_t1	Abs_t2	neck_flexion	neck_bending	neck_rotation	arm_flex_r	arm_add_r	arm_rot_r	elbow_flex_r	pro_sup_r	wrist_flex_r	wrist_dev_r	arm_flex_l	arm_add_l	arm_rot_l	elbow_flex_l	pro_sup_l	wrist_flex_l	wrist_dev_l
      4.11764706	     -4.87756400	    -40.06750063	     81.42676301	      0.20072144	      0.57865916	      0.83137805	     56.98103002	      2.45413589	     11.74187977	     24.48732733	      0.42738449	     36.01718363	      1.66052865	      0.00000000	     56.32855262	     -5.62413744	    -17.04694119	     25.80085502	      0.45030987	     40.55037069	      8.45885556	      0.00000000	     -0.09259230	     -2.53084160	     -0.30773623	     -0.17195316	     -3.36601933	     -0.32696974	     -0.15211989	     -6.15348827	     -0.32696974	     -0.10582374	     -6.15348827	     -0.26926920	     -0.08598121	     -5.16089220	     -0.25003568	     -0.05290724	     -3.92027364	     -0.23080217	     -0.66137756	    -28.62938637	     -1.71153657	      0.00000000	      0.00000000	     21.45609211	     14.06343275	     -1.70992191	     -3.26268322	    -16.06724408	     42.80647422	    115.81393371	     68.23323324	     -6.04789612	     -4.52695984	    -15.75785725	    -25.54741774	     40.72613300	    108.19841761	     89.36013171	    -15.46551817	    -23.90381248
      4.13725490	     -4.27169552	    -38.24590167	     82.26661324	      0.19952152	      0.58379126	      0.82379749	     53.65956266	      2.11099545	     11.66892015	     22.76543871	      0.39733186	     36.05309629	      1.53432700	      0.00000000	     53.27497156	     -5.06192177	    -16.69075531	     24.34991194	      0.42498614	     40.48324709	      8.85553337	      0.00000000	     -0.09870909	     -2.45175013	     -0.25009899	     -0.18331265	     -3.26082767	     -0.26573018	     -0.16216916	     -5.96118526	     -0.26573018	     -0.11281462	     -5.96118526	     -0.21883662	     -0.09166126	     -4.99960886	     -0.20320543	     -0.05640237	     -3.79776095	     -0.18757425	     -0.70506916	    -27.73468779	     -1.39097558	      0.00000000	      0.00000000	     22.44604031	     13.30869363	     -2.25948885	     -3.72367607	    -15.48660903	     42.09440360	    114.47199850	     67.95046140	     -5.49537228	     -2.69709015	    -15.37392130	    -24.37816341	     38.76074759	    108.96686003	     89.25834756	    -14.43968481	    -22.58450971
      4.15686275	     -3.34390561	    -36.08281383	     83.40133907	      0.19791566	      0.59038618	      0.81551796	     49.63926006	      2.05791057	     12.42690616	     20.48859417	      0.35759343	     35.67374198	     -0.11856396	      0.00000000	     49.67532044	     -4.63013811	    -16.32509186	     22.70703760	      0.39631257	     40.21809487	      9.46479194	      0.00000000	     -0.09869025	     -2.32606588	     -0.16396671	     -0.18327766	     -3.09366762	     -0.17421463	     -0.16213821	     -5.65559657	     -0.17421463	     -0.11279308	     -5.65559657	     -0.14347087	     -0.09164376	     -4.74331354	     -0.13322295	     -0.05639161	     -3.60307604	     -0.12297503	     -0.70493457	    -26.31292241	     -0.91193365	      0.00000000	      0.00000000	     22.91663120	     12.85489551	     -2.05651925	     -4.11478981	    -15.10241897	     41.17852796	    111.79967286	     66.97090854	     -1.98661294	      0.82973240	    -15.40563737	    -22.94990177	     35.01902022	    109.27180459	     89.10780615	     -5.44493599	    -14.33160826
      4.17647059	     -1.64626364	    -33.64915455	     85.37361802	      0.19429693	      0.59816816	      0.80709832	     44.83328526	      1.96533133	     11.69845954	     17.28766338	      0.30172665	     35.10478542	     -0.69963926	      0.00000000	     45.83796320	     -4.37118330	    -15.21977247	     21.07831696	      0.36788603	     39.72964274	      9.95108541	      0.00000000	     -0.11817694	     -2.07880235	     -0.13925597	     -0.21946640	     -2.76480713	     -0.14795946	     -0.19415290	     -5.05440004	     -0.14795946	     -0.13506443	     -5.05440004	     -0.12184897	     -0.10973911	     -4.23909376	     -0.11314547	     -0.06752631	     -3.22006484	     -0.10444197	     -0.84412610	    -23.51582796	     -0.77449990	      0.00000000	      0.00000000	     22.88740440	     11.99598248	     -0.54461868	     -3.86370454	    -15.62202868	     41.57859262	    108.65996010	     66.09426074	     -0.89115080	      4.62565845	    -14.34490860	    -21.15613183	     33.48619463	    109.18182206	     88.87643251	     -3.09188601	     -3.89991834
      4.19607843	      0.19930730	    -31.29427210	     87.47620582	      0.18917904	      0.60605165	      0.79878887	     40.12449416	      2.10551110	     11.06290070	     14.10626924	      0.24620084	     34.15448670	     -1.79837885	      0.00000000	     42.02324806	     -4.20304600	    -13.61103324	     19.21720397	      0.33540348	     39.04627557	      9.98673630	      0.00000000	     -0.08728450	     -1.76855263	     -0.15847527	     -0.16209605	     -2.35217500	     -0.16837998	     -0.14339971	     -4.30005886	     -0.16837998	     -0.09975746	     -4.30005886	     -0.13866586	     -0.08105239	     -3.60643252	     -0.12876116	     -0.04987436	     -2.73948802	     -0.11885645	     -0.62346446	    -20.00622104	     -0.88139191	      0.00000000	      0.00000000	     22.25715133	     10.68053687	      1.71856828	     -3.29187099	    -16.67609683	     42.49119678	    105.44370527	     66.24818649	      0.38983834	      8.83248136	    -13.00242225	    -18.57852838	     31.59101648	    108.57231964	     88.55419960	      1.40097066	      7.04932971
